<?xml version="1.0" encoding="utf-8"?>
<svg viewBox="7 -52 144 168" xmlns="http://www.w3.org/2000/svg" xmlns:bx="http://www.boxy-svg.com/bx">
  <defs>
    <linearGradient id="gradient-1" gradientUnits="userSpaceOnUse" x1="499" y1="126" x2="499" y2="401">
      <stop style="stop-color: rgb(216, 216, 216);" offset="0"/>
      <stop style="stop-color: rgb(165, 165, 165);" offset="1"/>
    </linearGradient>
    <radialGradient id="gradient-2" gradientUnits="userSpaceOnUse" cx="499" cy="263.5" r="153">
      <stop style="stop-color: rgb(216, 216, 216);" offset="0"/>
      <stop style="stop-color: rgb(165, 165, 165);" offset="1"/>
    </radialGradient>
    <linearGradient id="gradient-3" gradientUnits="userSpaceOnUse" x1="499" y1="126" x2="499" y2="401">
      <stop style="stop-color: rgb(216, 216, 216);" offset="0"/>
      <stop style="stop-color: rgb(165, 165, 165);" offset="1"/>
    </linearGradient>
  </defs>
  <rect transform="matrix(0.47130769491195673, 0, 0, 0.6102964878082275, -156.14929500819997, -128.43784643930013)" width="306" height="275" x="346" y="126" style="fill: rgb(139, 63, 216); fill-rule: nonzero;"/>
  <rect transform="matrix(0.6772245168685913, 0, 0, 0.6723642349243164, -243.69794740020612, -136.3315114458344)" width="142" height="131" x="386" y="163" style="fill: rgba(16, 38, 56, 0.701961);"/>
  <rect transform="matrix(0.7504382133483887, 0, 0, 0.7488721652912746, -311.30804443359375, -171.02145978299512)" width="120" height="106" x="485" y="237" style="fill: rgb(54, 179, 183);"/>
  <text x="40.53722381591797" y="-51.48302459716797" style="white-space: pre;"/>
  <ellipse transform="matrix(0.6571210622787476, 0, 0, 0.639241635799408, -181.23372856799188, -163.14207132319933)" cx="298.5" cy="484" rx="126.5" ry="97" style="fill: rgb(216, 216, 216);"/>
  <path d="M 124.738 92.6922 Z" style="stroke: inherit; fill: none;"/>
  <path d="M 27.75742530822754 104.1811294555664 C 27.75742530822754 100.4183578491211 31.14417839050293 97.40762329101562 32.15025329589844 95.39547729492188 C 32.15025329589844 89.94855499267578 31.47443199157715 84.177734375 31.47443199157715 79.51371765136719 C 31.47443199157715 79.14955139160156 31.47443199157715 74.7829818725586 31.47443199157715 74.7829818725586" style="stroke: black; fill: none;"/>
  <path d="M 32.488162994384766 95.05756378173828 C 32.826072692871094 95.50604248046875 36.5430793762207 102.8294906616211 36.5430793762207 102.8294906616211 C 36.88098907470703 102.8294906616211 37.238224029541016 103.50531005859375 37.55680847167969 103.50531005859375" style="stroke: black; fill: none;"/>
  <path d="M 37.894718170166016 88.63728332519531 C 37.894718170166016 88.63728332519531 32.39653015136719 81.44954681396484 32.15025329589844 81.2032699584961 C 30.777080535888672 83.27379608154297 26.0678768157959 86.89193725585938 26.0678768157959 89.31310272216797" style="stroke: black; fill: none;"/>
  <ellipse transform="matrix(0.3526014983654022, 0, 0, 0.3379097282886505, -46.99408742030578, 25.448158264160156)" cx="223.5" cy="145.5" rx="11.5" ry="10.5" style="fill: rgb(2, 2, 4); stroke: rgb(49, 179, 112);"/>
  <ellipse transform="matrix(0.3379097282886505, 0, 0, 0.3379097282886505, -34.08005779484181, -82.00714954694577)" cx="486.5" cy="155" rx="46.5" ry="41" style="fill: rgb(216, 216, 216);"/>
  <path d="M 205 93.44365081 L 208.65751705 103.96585966 L 219.79496726 104.19282373 L 210.91798691 110.92287051 L 214.14379263 121.58535086 L 205 115.22253967 L 195.85620737 121.58535086 L 199.08201309 110.92287051 L 190.20503274 104.19282373 L 201.34248295 103.96585966 L 205 93.44365081 L 208.65751705 103.96585966" transform="matrix(-0.23893827477243215, 0.23893827477243218, -0.23893827477243218, -0.23893827477243215, 101.77031405818725, -62.70650338280482)" style="fill: rgb(216, 216, 216);" bx:is="bx-starpath" bx:cx="205" bx:cy="109" bx:r1="6.222539674441618" bx:r2="15.556349186104045"/>
  <path d="M 273 92.18975032 L 274.83629983 97.47255011 L 280.42798885 97.58650012 L 275.97119554 100.96539995 L 277.59074958 106.31862472 L 273 103.12409987 L 268.40925042 106.31862472 L 270.02880446 100.96539995 L 265.57201115 97.58650012 L 271.16370017 97.47255011 L 273 92.18975032 L 274.83629983 97.47255011" transform="matrix(-0.25958945957561325, 0.21632454964634426, -0.21632454964634426, -0.25958945957561325, 142.2219361236382, -75.9072728393208)" style="fill: rgb(216, 216, 216);" bx:is="bx-starpath" bx:cx="273" bx:cy="100" bx:r1="3.1240998703626617" bx:r2="7.810249675906654"/>
  <path d="M 379 117.93774225 L 380.89555048 123.39099859 L 386.66766277 123.50862534 L 382.06706511 126.99654986 L 383.7388762 132.52250353 L 379 129.2249031 L 374.2611238 132.52250353 L 375.93293489 126.99654986 L 371.33233723 123.50862534 L 377.10444952 123.39099859 L 379 117.93774225 L 380.89555048 123.39099859" transform="matrix(-0.16765018400683845, 0.2933878220119673, -0.2933878220119673, -0.16765018400683845, 186.0462773748005, -124.09402463352083)" style="fill: rgb(216, 216, 216);" bx:is="bx-starpath" bx:cx="379" bx:cy="126" bx:r1="3.2249030993194197" bx:r2="8.06225774829855"/>
  <path d="M 531 199.36985419 L 533.49929718 206.56001255 L 541.10986944 206.71510429 L 535.04394778 211.31395828 L 537.24824294 218.59996862 L 531 214.25205833 L 524.75175706 218.59996862 L 526.95605222 211.31395828 L 520.89013056 206.71510429 L 528.50070282 206.56001255 L 531 199.36985419 L 533.49929718 206.56001255" transform="matrix(-0.22251512659767722, 0.25430300182591686, -0.25430300182591686, -0.22251512659767722, 308.4614364799968, -93.94626176462751)" style="fill: rgb(216, 216, 216);" bx:is="bx-starpath" bx:cx="531" bx:cy="210" bx:r1="4.25205832509386" bx:r2="10.63014581273465"/>
  <path d="M 471 220.78889745 L 472.69543189 225.6664382 L 477.85816607 225.77164676 L 473.74326643 228.89134129 L 475.23857973 233.83390451 L 471 230.88444102 L 466.76142027 233.83390451 L 468.25673357 228.89134129 L 464.14183393 225.77164676 L 469.30456811 225.6664382 L 471 220.78889745 L 472.69543189 225.6664382" transform="matrix(-0.18743860393981937, 0.28115790590972917, -0.28115790590972917, -0.18743860393981937, 269.01527395106865, -89.24654088822382)" style="fill: rgb(216, 216, 216);" bx:is="bx-starpath" bx:cx="471" bx:cy="228" bx:r1="2.884441020371191" bx:r2="7.211102550927978"/>
  <path d="M 247 408.59906544 L 252.03166149 423.0745121 L 267.35349827 423.38674753 L 255.14139931 432.64530099 L 259.57915372 447.31371975 L 247 438.56037382 L 234.42084628 447.31371975 L 238.85860069 432.64530099 L 226.64650173 423.38674753 L 241.96833851 423.0745121 L 247 408.59906544 L 252.03166149 423.0745121" transform="matrix(-0.20526331322935396, 0.268421255761463, -0.268421255761463, -0.20526331322935396, 207.05708357235756, 90.66377486066762)" style="fill: rgb(216, 216, 216);" bx:is="bx-starpath" bx:cx="247" bx:cy="430" bx:r1="8.560373823613078" bx:r2="21.400934559032695"/>
  <path d="M 161 422.79344438 L 163.86993335 431.04987563 L 172.60912426 431.22796687 L 165.6436497 436.50881325 L 168.17483337 444.87531094 L 161 439.88262225 L 153.82516663 444.87531094 L 156.3563503 436.50881325 L 149.39087574 431.22796687 L 158.13006665 431.04987563 L 161 422.79344438 L 163.86993335 431.04987563" transform="matrix(-0.19377851670323482, 0.27682645243319276, -0.27682645243319276, -0.19377851670323482, 163.4935148321623, 110.11474501305591)" style="fill: rgb(216, 216, 216);" bx:is="bx-starpath" bx:cx="161" bx:cy="435" bx:r1="4.882622246293481" bx:r2="12.206555615733702"/>
  <path d="M 37.2189 85.934 C 37.5568 85.934 37.7821 85.934 37.8947 85.934 Z" style="stroke: black; fill: none;"/>
  <path d="M 38.2326 84.9203 C 38.2584 84.9203 39.9222 84.9203 39.9222 84.9203 Z" style="stroke: black; fill: none;"/>
  <path d="M 101.422 133.241 Z" style="stroke: black; fill: none;"/>
  <path d="M 125.751 134.255 Z" style="stroke: black; fill: none;"/>
</svg>